<svg width="608" height="608" viewBox="0 0 608 608" fill="none" xmlns="http://www.w3.org/2000/svg">
<path d="M372.327 82.5522C340.124 77.773 327.269 134.859 329.294 155.815C328.518 212.623 336.227 240.887 374.969 278.688C385.592 294.528 481.407 332.691 493.383 302.43C505.359 272.169 441.076 236.519 439.73 236.08C438.385 235.641 515.102 195.496 504.181 145.802C465.66 115.536 399.111 165.518 400.182 164.247C401.253 162.976 404.529 87.3313 372.327 82.5522Z" fill="#73B993" stroke="black" stroke-width="6"/>
<path d="M131.149 149.343C122.482 173.346 155.873 221.204 201.469 239.688C247.064 258.172 302.969 258.188 335.469 239.688C367.969 221.188 399.784 175.263 382.015 157.557C364.246 139.851 298.146 165.851 297.569 169.8C296.992 173.749 301.17 84.2721 252.867 68.2827C213.938 83.817 218.965 170.328 215.613 167.116C212.261 163.905 139.817 125.339 131.149 149.343Z" fill="#73B993" stroke="black" stroke-width="6"/>
<path d="M257.969 114.688C261.178 126.36 263.469 186.188 257.969 213.688" stroke="black" stroke-width="6" stroke-linecap="round"/>
<path d="M459.123 170.361C447.15 172.779 406.26 208.727 399.969 217.688" stroke="black" stroke-width="6" stroke-linecap="round"/>
<circle cx="340.469" cy="274.188" r="35" fill="#9E538E" stroke="black" stroke-width="6"/>
<circle cx="226.469" cy="265.188" r="35" fill="#9E538E" stroke="black" stroke-width="6"/>
<circle cx="200.469" cy="351.188" r="35" fill="#9E538E" stroke="black" stroke-width="6"/>
<circle cx="249" cy="506" r="35" fill="#9E538E" stroke="black" stroke-width="6"/>
<circle cx="281.469" cy="329.188" r="35" fill="#9E538E" stroke="black" stroke-width="6"/>
<circle cx="200.469" cy="434.188" r="35" fill="#9E538E" stroke="black" stroke-width="6"/>
<path d="M358.469 395.188C377.799 395.188 393.469 379.518 393.469 360.188C393.469 340.858 377.799 325.188 358.469 325.188C339.139 325.188 323.469 340.858 323.469 360.188C323.469 379.518 339.139 395.188 358.469 395.188Z" fill="#9E538E" stroke="black" stroke-width="6"/>
<circle cx="290" cy="423" r="35" fill="#9E538E" stroke="black" stroke-width="6"/>
</svg>
